<mxfile host="app.diagrams.net" agent="Mozilla/5.0 (Macintosh; Intel Mac OS X 10_15_7) AppleWebKit/537.36 (KHTML, like Gecko) Chrome/126.0.0.0 Safari/537.36" version="24.7.4">
  <diagram id="C5RBs43oDa-KdzZeNtuy" name="Page-1">
    <mxGraphModel dx="954" dy="606" grid="0" gridSize="10" guides="1" tooltips="1" connect="1" arrows="1" fold="1" page="1" pageScale="1" pageWidth="827" pageHeight="1169" math="0" shadow="0">
      <root>
        <mxCell id="WIyWlLk6GJQsqaUBKTNV-0" />
        <mxCell id="WIyWlLk6GJQsqaUBKTNV-1" parent="WIyWlLk6GJQsqaUBKTNV-0" />
        <mxCell id="MtAjiL5NKAA9mcgFVmzM-14" value="" style="rounded=0;whiteSpace=wrap;html=1;dashed=1;strokeWidth=1;" vertex="1" parent="WIyWlLk6GJQsqaUBKTNV-1">
          <mxGeometry x="420" y="105" width="363" height="539" as="geometry" />
        </mxCell>
        <mxCell id="MtAjiL5NKAA9mcgFVmzM-2" value="" style="rounded=0;whiteSpace=wrap;html=1;dashed=1;" vertex="1" parent="WIyWlLk6GJQsqaUBKTNV-1">
          <mxGeometry x="31" y="105" width="363" height="539" as="geometry" />
        </mxCell>
        <mxCell id="MtAjiL5NKAA9mcgFVmzM-5" value="&lt;font style=&quot;font-size: 18px;&quot;&gt;中央consul监听&lt;/font&gt;" style="text;html=1;align=center;verticalAlign=middle;resizable=0;points=[];autosize=1;strokeColor=none;fillColor=none;" vertex="1" parent="WIyWlLk6GJQsqaUBKTNV-1">
          <mxGeometry x="135.5" y="105" width="142" height="34" as="geometry" />
        </mxCell>
        <mxCell id="MtAjiL5NKAA9mcgFVmzM-7" value="HandlerDomainNameKeyPrefixChanged&lt;div&gt;监听中央consul /domain/{domainName}/current&lt;/div&gt;" style="rounded=1;whiteSpace=wrap;html=1;fillColor=#FF9999;" vertex="1" parent="WIyWlLk6GJQsqaUBKTNV-1">
          <mxGeometry x="45" y="160" width="327" height="60" as="geometry" />
        </mxCell>
        <mxCell id="MtAjiL5NKAA9mcgFVmzM-8" value="HandlerRBACRelationKeyPrefixChanged&lt;div&gt;监听中央consul /rbac_relation&lt;/div&gt;" style="rounded=1;whiteSpace=wrap;html=1;" vertex="1" parent="WIyWlLk6GJQsqaUBKTNV-1">
          <mxGeometry x="43" y="241" width="327" height="60" as="geometry" />
        </mxCell>
        <mxCell id="MtAjiL5NKAA9mcgFVmzM-9" value="HandlerRBACNotesKeyPrefixChanged&lt;div&gt;监听中央consul /rbac_notes&lt;/div&gt;" style="rounded=1;whiteSpace=wrap;html=1;" vertex="1" parent="WIyWlLk6GJQsqaUBKTNV-1">
          <mxGeometry x="45" y="322" width="327" height="60" as="geometry" />
        </mxCell>
        <mxCell id="MtAjiL5NKAA9mcgFVmzM-10" value="HandlerRBACInfoKeyPrefixChanged&lt;div&gt;监听中央consul /rbac_info&lt;/div&gt;" style="rounded=1;whiteSpace=wrap;html=1;" vertex="1" parent="WIyWlLk6GJQsqaUBKTNV-1">
          <mxGeometry x="45" y="403" width="327" height="60" as="geometry" />
        </mxCell>
        <mxCell id="MtAjiL5NKAA9mcgFVmzM-11" value="HandlerBasicServicesChanged&lt;div&gt;监听中央consul基础服务变化&lt;/div&gt;&lt;div&gt;（ratelimit、xds-server、jaeger- collector）&lt;/div&gt;" style="rounded=1;whiteSpace=wrap;html=1;fillColor=#FF9999;" vertex="1" parent="WIyWlLk6GJQsqaUBKTNV-1">
          <mxGeometry x="45" y="484" width="327" height="60" as="geometry" />
        </mxCell>
        <mxCell id="MtAjiL5NKAA9mcgFVmzM-12" value="HandlerGatewayServicesChanged&lt;div&gt;监听中央consul gateway服务变化&lt;/div&gt;" style="rounded=1;whiteSpace=wrap;html=1;fillColor=#FF9999;" vertex="1" parent="WIyWlLk6GJQsqaUBKTNV-1">
          <mxGeometry x="43" y="565" width="327" height="60" as="geometry" />
        </mxCell>
        <mxCell id="MtAjiL5NKAA9mcgFVmzM-13" value="如有变化，标记域内所有系统边车需要更新" style="rounded=1;whiteSpace=wrap;html=1;" vertex="1" parent="WIyWlLk6GJQsqaUBKTNV-1">
          <mxGeometry x="439" y="160" width="325" height="60" as="geometry" />
        </mxCell>
        <mxCell id="MtAjiL5NKAA9mcgFVmzM-15" value="&lt;span style=&quot;font-size: 18px;&quot;&gt;校验更新&lt;/span&gt;" style="text;html=1;align=center;verticalAlign=middle;resizable=0;points=[];autosize=1;strokeColor=none;fillColor=none;" vertex="1" parent="WIyWlLk6GJQsqaUBKTNV-1">
          <mxGeometry x="556.5" y="105" width="90" height="34" as="geometry" />
        </mxCell>
        <mxCell id="MtAjiL5NKAA9mcgFVmzM-16" value="如有变化，标记gateway需要更新" style="rounded=1;whiteSpace=wrap;html=1;" vertex="1" parent="WIyWlLk6GJQsqaUBKTNV-1">
          <mxGeometry x="439" y="241" width="325" height="60" as="geometry" />
        </mxCell>
        <mxCell id="MtAjiL5NKAA9mcgFVmzM-17" value="如有变化，标记gateway、相关系统边车需要更新" style="rounded=1;whiteSpace=wrap;html=1;" vertex="1" parent="WIyWlLk6GJQsqaUBKTNV-1">
          <mxGeometry x="437" y="322" width="325" height="60" as="geometry" />
        </mxCell>
        <mxCell id="MtAjiL5NKAA9mcgFVmzM-18" value="如有变化，标记gateway、相关系统边车需要更新" style="rounded=1;whiteSpace=wrap;html=1;" vertex="1" parent="WIyWlLk6GJQsqaUBKTNV-1">
          <mxGeometry x="435" y="403" width="325" height="60" as="geometry" />
        </mxCell>
        <mxCell id="MtAjiL5NKAA9mcgFVmzM-19" value="" style="rounded=0;whiteSpace=wrap;html=1;dashed=1;" vertex="1" parent="WIyWlLk6GJQsqaUBKTNV-1">
          <mxGeometry x="31" y="664" width="363" height="539" as="geometry" />
        </mxCell>
        <mxCell id="MtAjiL5NKAA9mcgFVmzM-20" value="&lt;font style=&quot;font-size: 18px;&quot;&gt;域consul监听&lt;/font&gt;" style="text;html=1;align=center;verticalAlign=middle;resizable=0;points=[];autosize=1;strokeColor=none;fillColor=none;" vertex="1" parent="WIyWlLk6GJQsqaUBKTNV-1">
          <mxGeometry x="146.5" y="664" width="124" height="34" as="geometry" />
        </mxCell>
        <mxCell id="MtAjiL5NKAA9mcgFVmzM-21" value="更新域consul kv" style="rounded=1;whiteSpace=wrap;html=1;" vertex="1" parent="WIyWlLk6GJQsqaUBKTNV-1">
          <mxGeometry x="435" y="484" width="325" height="60" as="geometry" />
        </mxCell>
        <mxCell id="MtAjiL5NKAA9mcgFVmzM-22" value="如有变化，标记gateway、相关系统边车需要更新" style="rounded=1;whiteSpace=wrap;html=1;" vertex="1" parent="WIyWlLk6GJQsqaUBKTNV-1">
          <mxGeometry x="433" y="565" width="325" height="60" as="geometry" />
        </mxCell>
      </root>
    </mxGraphModel>
  </diagram>
</mxfile>
